<svg viewBox="0 0 600 400" xmlns="http://www.w3.org/2000/svg">
<g transform="translate(72, 364)">
<g>
<g>
<path d="M0,-340 L0,-340 L4.848485,-322.98172 L9.69697,-305.96344 L14.545455,-288.94516 L19.39394,-271.92688 L24.242424,-254.9086 L29.09091,-237.8903 L33.939392,-220.87202 L38.78788,-203.85374 L43.636364,-186.83546 L48.484848,-169.81718 L53.333332,-161.30804 L58.18182,-152.7989 L63.030304,-144.28976 L67.878784,-135.78062 L72.72727,-127.271484 L77.57576,-118.762344 L82.42424,-110.253204 L87.27273,-101.744064 L92.121216,-93.23492 L96.969696,-84.72578 L101.818184,-80.47121 L106.666664,-76.21664 L111.51515,-71.96207 L116.36364,-67.7075 L121.21212,-63.452927 L126.06061,-59.198357 L130.90909,-54.943787 L135.75757,-50.689217 L140.60606,-46.434647 L145.45454,-42.180077 L150.30302,-40.05279 L155.15152,-37.925507 L160,-35.79822 L164.84848,-33.670937 L169.69698,-31.54365 L174.54546,-29.416365 L179.39394,-27.28908 L184.24243,-25.161795 L189.09091,-23.03451 L193.93939,-20.907225 L198.78787,-19.843582 L203.63637,-18.77994 L208.48485,-17.716297 L213.33333,-16.652655 L218.18182,-15.589011 L223.0303,-14.525369 L227.87878,-13.461726 L232.72728,-12.398084 L237.57576,-11.334441 L242.42424,-10.270799 L247.27272,-9.738977 L252.12122,-9.207156 L256.9697,-8.675335 L261.81818,-8.143514 L266.66666,-7.6116924 L271.51514,-7.079871 L276.36365,-6.5480494 L281.21213,-6.016228 L286.0606,-5.484407 L290.9091,-4.9525857 L295.75757,-4.686675 L300.60605,-4.4207644 L305.45456,-4.154854 L310.30304,-3.8889432 L315.15152,-3.6230326 L320,-3.357122 L324.84848,-3.0912113 L329.69696,-2.8253007 L334.54544,-2.55939 L339.39395,-2.2934794 L344.24243,-2.160524 L349.0909,-2.0275686 L353.9394,-1.8946134 L358.78787,-1.7616581 L363.63635,-1.6287028 L368.48486,-1.4957473 L373.33334,-1.362792 L378.18182,-1.2298367 L383.0303,-1.0968814 L387.87878,-0.9639261 L392.72726,-0.8974484 L397.57574,-0.83097076 L402.42426,-0.7644931 L407.27274,-0.69801545 L412.12122,-0.6315378 L416.9697,-0.56506014 L421.81818,-0.49858245 L426.66666,-0.4321048 L431.51514,-0.36562714 L436.36365,-0.29914948 L441.21213,-0.26591066 L446.0606,-0.23267181 L450.9091,-0.19943298 L455.75757,-0.16619416 L460.60605,-0.13295533 L465.45456,-0.09971649 L470.30304,-0.066477664 L475.15152,-0.033238832 L480,-0" fill="none" stroke="cyan" stroke-linejoin="round" stroke-width="2"/>
</g>
</g>
<g>
<g>
<line stroke="black" stroke-width="1" x1="0" x2="0" y1="0" y2="10"/>
<line stroke="black" stroke-width="1" x1="96.96969696969697" x2="96.96969696969697" y1="0" y2="10"/>
<line stroke="black" stroke-width="1" x1="193.93939393939394" x2="193.93939393939394" y1="0" y2="10"/>
<line stroke="black" stroke-width="1" x1="290.90909090909093" x2="290.90909090909093" y1="0" y2="10"/>
<line stroke="black" stroke-width="1" x1="387.8787878787879" x2="387.8787878787879" y1="0" y2="10"/>
</g>
<line stroke="black" stroke-width="1" x1="0" x2="480" y1="0" y2="0"/>
<g>
<text font-size="12" text-anchor="middle" x="0" y="20">
0
</text>
<text font-size="12" text-anchor="middle" x="96.96969696969697" y="20">
20
</text>
<text font-size="12" text-anchor="middle" x="193.93939393939394" y="20">
40
</text>
<text font-size="12" text-anchor="middle" x="290.90909090909093" y="20">
60
</text>
<text font-size="12" text-anchor="middle" x="387.8787878787879" y="20">
80
</text>
</g>
<text font-size="12" text-anchor="middle" x="240" y="30">

</text>
</g>
<g>
<g>
<line stroke="black" stroke-width="1" x1="0" x2="-10" y1="-0.00000000001481324391436115" y2="-0.00000000001481324391436115"/>
<line stroke="black" stroke-width="1" x1="0" x2="-10" y1="-95.5865356969081" y2="-95.5865356969081"/>
<line stroke="black" stroke-width="1" x1="0" x2="-10" y1="-191.17307139380137" y2="-191.17307139380137"/>
<line stroke="black" stroke-width="1" x1="0" x2="-10" y1="-286.75960709069466" y2="-286.75960709069466"/>
</g>
<line stroke="black" stroke-width="1" x1="0" x2="0" y1="0" y2="-340"/>
<g>
<text dominant-baseline="middle" font-size="12" text-anchor="end" x="-15" y="-0.00000000001481324391436115">
320511277.97959
</text>
<text dominant-baseline="middle" font-size="12" text-anchor="end" x="-15" y="-95.5865356969081">
330511277.97959
</text>
<text dominant-baseline="middle" font-size="12" text-anchor="end" x="-15" y="-191.17307139380137">
340511277.97959
</text>
<text dominant-baseline="middle" font-size="12" text-anchor="end" x="-15" y="-286.75960709069466">
350511277.97959
</text>
</g>
<text font-size="12" text-anchor="middle" transform="rotate(-90 -180 -170)" x="-180" y="-182">

</text>
</g>
</g>
</svg>